<svg xmlns="http://www.w3.org/2000/svg" width="558" height="160" fill="none" viewBox="0 0 558 160">
    <rect width="558" height="160" fill="#01579B" rx="24"/>
    <path fill="#E1F5FE" d="M159.023 92h9.943c5.227 0 8.011-2.727 8.011-6.432 0-3.443-2.466-5.522-5.113-5.647v-.228c2.42-.545 4.204-2.261 4.204-5 0-3.489-2.591-5.966-7.727-5.966h-9.318V92zm4.92-4.023v-6.181h4.125c2.364 0 3.83 1.363 3.83 3.283 0 1.75-1.193 2.898-3.943 2.898h-4.012zm0-9.511v-5.761h3.739c2.182 0 3.42 1.124 3.42 2.806 0 1.841-1.5 2.955-3.511 2.955h-3.648zm21.122 13.864c2.58 0 4.25-1.126 5.103-2.75h.136V92h4.591V80.227c0-4.159-3.523-5.909-7.409-5.909-4.182 0-6.932 2-7.602 5.182l4.477.364c.329-1.16 1.363-2.012 3.102-2.012 1.648 0 2.591.83 2.591 2.262v.068c0 1.125-1.193 1.272-4.227 1.568-3.455.318-6.557 1.477-6.557 5.375 0 3.454 2.466 5.204 5.795 5.204zm1.387-3.341c-1.489 0-2.557-.694-2.557-2.023 0-1.364 1.125-2.034 2.829-2.273 1.057-.147 2.785-.397 3.364-.784v1.852c0 1.83-1.511 3.228-3.636 3.228zm17.039-7.08c.012-2.25 1.353-3.568 3.307-3.568 1.943 0 3.114 1.273 3.103 3.409V92h4.84V80.886c0-4.068-2.386-6.568-6.022-6.568-2.591 0-4.466 1.273-5.25 3.307h-.205v-3.08h-4.613V92h4.84V81.91zm19.907 0c.011-2.25 1.352-3.568 3.307-3.568 1.943 0 3.113 1.273 3.102 3.409V92h4.841V80.886c0-4.068-2.387-6.568-6.023-6.568-2.591 0-4.466 1.273-5.25 3.307h-.205v-3.08h-4.613V92h4.841V81.91zm23.02 10.432c4.318 0 7.227-2.102 7.909-5.341l-4.478-.296c-.488 1.33-1.738 2.023-3.352 2.023-2.42 0-3.954-1.602-3.954-4.204v-.012h11.886v-1.33c0-5.931-3.591-8.863-8.205-8.863-5.136 0-8.465 3.648-8.465 9.034 0 5.534 3.284 8.989 8.659 8.989zm-3.875-10.83c.102-1.988 1.613-3.58 3.761-3.58 2.102 0 3.557 1.5 3.568 3.58h-7.329zM257.588 92h4.841v-9.875c0-2.148 1.568-3.625 3.705-3.625.67 0 1.59.114 2.045.261v-4.295c-.432-.102-1.034-.17-1.523-.17-1.954 0-3.557 1.136-4.193 3.295h-.182v-3.045h-4.693V92zm28.955.318c5.181 0 8.704-3.375 8.693-8.08.011-4.454-3.102-7.659-7.296-7.659-2.045 0-3.806.853-4.625 2h-.136l.602-5.829h10.171v-4.023h-14.228L278.622 81l4.375.784c.716-.966 2.102-1.568 3.477-1.568 2.341.011 4.023 1.705 4.023 4.148 0 2.42-1.648 4.09-3.954 4.09-1.955 0-3.534-1.227-3.648-3.033h-4.773c.091 4.022 3.602 6.897 8.421 6.897zm20.625 0c5.181 0 8.704-3.375 8.693-8.08.011-4.454-3.102-7.659-7.296-7.659-2.045 0-3.806.853-4.625 2h-.136l.602-5.829h10.171v-4.023h-14.228L299.247 81l4.375.784c.716-.966 2.102-1.568 3.477-1.568 2.341.011 4.023 1.705 4.023 4.148 0 2.42-1.648 4.09-3.954 4.09-1.955 0-3.534-1.227-3.648-3.033h-4.773c.091 4.022 3.602 6.897 8.421 6.897zm20.806 0c5.25 0 9.023-2.807 9.035-6.58-.012-2.909-2.25-5.284-5.046-5.75v-.159c2.432-.5 4.171-2.602 4.182-5.158-.011-3.603-3.466-6.262-8.171-6.262-4.715 0-8.17 2.66-8.159 6.261-.011 2.546 1.705 4.66 4.182 5.16v.159c-2.841.465-5.057 2.84-5.045 5.75-.012 3.772 3.772 6.58 9.022 6.58zm0-3.614c-2.34 0-3.909-1.386-3.909-3.352 0-2.011 1.648-3.466 3.909-3.466 2.25 0 3.91 1.455 3.91 3.466 0 1.977-1.58 3.352-3.91 3.352zm0-10.397c-1.965 0-3.363-1.284-3.363-3.125 0-1.818 1.375-3.068 3.363-3.068 1.978 0 3.364 1.261 3.364 3.068 0 1.84-1.409 3.125-3.364 3.125zm26.759 10.466l2.989-2.989-5.296-5.284 5.296-5.284-2.989-3.011-5.295 5.295-5.307-5.296-2.978 3.012 5.285 5.284-5.285 5.284 2.978 2.989 5.307-5.296 5.295 5.296zm17.591-20.046h-4.625l-5.761 3.648v4.364l5.329-3.341h.136V92h4.921V68.727zm14.463 23.591c5.182.023 8.716-3.375 8.704-8.114.012-4.363-3.034-7.51-7.159-7.51-2.556 0-4.818 1.227-5.863 3.283h-.159c.022-4.534 1.613-7.352 4.647-7.352 1.784 0 3.069.977 3.444 2.602h4.852c-.466-3.83-3.648-6.818-8.296-6.818-5.75 0-9.443 4.66-9.466 12.477-.011 8.523 4.512 11.41 9.296 11.432zm-.023-3.864c-2.273 0-3.954-1.829-3.954-4.102.011-2.261 1.727-4.102 3.988-4.102 2.273 0 3.932 1.784 3.921 4.09.011 2.33-1.682 4.114-3.955 4.114zm21.341 4.057c5.852 0 9.386-4.454 9.398-12.125.011-7.613-3.568-11.977-9.398-11.977-5.841 0-9.386 4.352-9.398 11.977-.022 7.648 3.534 12.114 9.398 12.125zm0-4.08c-2.67 0-4.398-2.681-4.386-8.045.011-5.284 1.727-7.943 4.386-7.943 2.648 0 4.375 2.66 4.375 7.943.011 5.364-1.716 8.046-4.375 8.046z"/>
</svg>
