<svg xmlns="http://www.w3.org/2000/svg" width="48" height="48" fill="none" viewBox="0 0 48 48">
    <path fill="#fff" d="M24 48c13.255 0 24-10.745 24-24S37.255 0 24 0 0 10.745 0 24s10.745 24 24 24z"/>
    <path fill="#000" stroke="#000" stroke-width=".5" d="M24.81 18.715l.185-.168c-.167-.184-.393-.297-.64-.297s-.473.113-.64.297h0l-.004.004-3.96 4.514-.364.415h.146c-.022.088-.033.179-.033.27 0 .127.022.253.065.372.042.116.105.224.188.315l3.958 4.513h0l.004.003c.167.184.393.297.64.297s.473-.113.64-.296c.084-.09.148-.2.19-.317.044-.119.065-.245.065-.372s-.021-.254-.064-.372c-.043-.117-.106-.225-.189-.315L21.64 23.75l3.357-3.827c.082-.09.146-.199.188-.316.043-.118.065-.244.065-.372 0-.127-.022-.253-.065-.371-.043-.118-.107-.227-.19-.318l-.184.17zm0 0c.06.065.108.144.14.234l-1.051-.234c.127-.138.288-.215.456-.215.167 0 .329.077.456.215z"/>
</svg>
