<svg xmlns="http://www.w3.org/2000/svg" width="48" height="48" fill="none" viewBox="0 0 48 48">
    <path fill="#fff" d="M24 0C10.745 0 0 10.745 0 24s10.745 24 24 24 24-10.745 24-24S37.255 0 24 0z"/>
    <path fill="#000" stroke="#000" stroke-width=".5" d="M22.19 29.285l-.185.168c.167.184.394.297.64.297.247 0 .473-.113.641-.297h0l.003-.003 3.96-4.515.364-.415h-.146c.022-.088.033-.179.033-.27 0-.127-.022-.253-.064-.371-.043-.117-.106-.225-.189-.316l-3.958-4.512h0l-.003-.004c-.168-.184-.394-.297-.641-.297s-.473.113-.64.296c-.084.09-.148.2-.19.318-.043.118-.065.244-.065.371s.022.254.064.372c.043.117.106.225.189.316l3.358 3.827-3.358 3.828c-.082.09-.146.198-.188.315-.043.118-.065.245-.065.372s.022.253.065.372c.043.117.107.227.19.317l.184-.17zm0 0c.126.139.288.215.455.215.168 0 .33-.076.456-.215l-.912-1.04c-.059.064-.107.143-.14.233-.032.09-.049.188-.049.287 0 .099.017.196.05.286.032.09.08.17.14.234z"/>
</svg>
