<svg xmlns="http://www.w3.org/2000/svg" width="118" height="48" fill="none" viewBox="0 0 118 48">
    <path fill="#1864AB" fill-rule="evenodd" d="M72.058 28.209V6.448H88.35l4.569 4.388v6.448l-4.569 4.567h-6.033v6.268l-10.258.09zM38.098 6.448h10.516l4.482 4.12 4.223-4.12h10.43v21.671h-6.723L57.06 24l-4.051 4.12h-.173L48.786 24l-4.051 4.12h-6.723l.086-21.672z" clip-rule="evenodd"/>
    <path fill="#35B24C" fill-rule="evenodd" d="M107.571 24.09l3.964 4.119H118v-6.806l-4.051-4.12L118 12.986V6.448h-6.465l-3.964 4.209-3.965-4.21h-6.465v6.538l3.879 4.299-3.879 4.119v6.806h6.465l3.965-4.12z" clip-rule="evenodd"/>
    <path fill="#FCC419" fill-rule="evenodd" d="M107.57 10.657l6.379 6.627-6.379 6.806-6.55-6.806 6.55-6.627z" clip-rule="evenodd"/>
    <path fill="#1864AB" fill-rule="evenodd" d="M107.484 13.612c1.896 0 3.448 1.612 3.448 3.582 0 1.97-1.552 3.582-3.448 3.582s-3.447-1.611-3.447-3.582c0-1.97 1.465-3.582 3.447-3.582zM17.239 0l13.274 6.358L34.39 28.03 17.154 48 0 28.03 3.793 6.358 17.239 0z" clip-rule="evenodd"/>
    <path fill="#fff" d="M17.238 4.747l3.793 2.238 3.706 2.24 1.12 7.88-4.05 3.582v4.836l-4.224-1.88V21.85l2.758-2.15-3.103.807-3.103-.806 2.845 2.15v1.79l-4.31 1.88v-4.835l-4.051-3.582 1.12-7.791 3.793-2.24 3.706-2.327z"/>
    <path fill="#fff" d="M21.806 26.418l-4.568 2.955-4.568-2.955 4.568-2.06 4.568 2.06z"/>
    <path fill="#1864AB" fill-rule="evenodd" d="M23.445 11.373l-4.137.358-.69 3.314c1.12-2.329 3.62-2.508 4.827-3.672zM11.033 11.373l4.137.358.776 3.314c-1.207-2.329-3.706-2.508-4.913-3.672z" clip-rule="evenodd"/>
    <path fill="#1C7ED6" fill-rule="evenodd" d="M38.098 30.09h5.689c1.724 0 2.586.537 2.586 1.611v.717c0 .537-.259 1.075-.776 1.343.517.18.862.627.862 1.164V36c0 1.075-.862 1.612-2.586 1.612h-5.689l-.086-7.522zm5.689 6.447c.862 0 1.206-.179 1.206-.537v-1.164c0-.18-.086-.358-.258-.358-.259-.09-.603-.18-.862-.18h-4.396v2.24h4.31zm-4.31-5.373v1.97h4.396c.259 0 .603 0 .862-.179.172-.09.258-.179.258-.358v-.985c0-.358-.43-.537-1.206-.537l-4.31.09zm13.964 6.448V30h5.774c1.724 0 2.586.537 2.586 1.612v.896c0 .895-.603 1.432-1.81 1.611l1.724 3.403H60.25l-1.724-3.403H54.82v3.493h-1.38zm1.379-6.448v1.97h4.395c.862 0 1.207-.179 1.207-.537v-.896c0-.358-.43-.537-1.206-.537H54.82zm24.393 6.448h-1.466l-3.792-6.18-3.965 6.18h-1.465L73.438 30h1.034c-.086 0 4.74 7.612 4.74 7.612zM92.4 33.045c1.724 0 2.586.537 2.586 1.612V36c0 1.075-.862 1.612-2.586 1.612h-6.206v-1.075H92.4c.862 0 1.207-.179 1.207-.537v-1.343c0-.358-.43-.538-1.207-.538h-3.878c-1.724 0-2.586-.537-2.586-1.611V31.7c0-1.074.862-1.611 2.586-1.611h6.033v1.164h-6.033c-.776 0-1.207.179-1.207.537v.806c0 .358.43.537 1.207.537l3.878-.09zM102.054 30h1.379v7.612h-1.379V30zm8.62 0h1.379v6.537H118v1.075h-7.326V30z" clip-rule="evenodd"/>
</svg>
