<svg xmlns="http://www.w3.org/2000/svg" width="28" height="28" fill="none" viewBox="0 0 28 28">
    <path fill="#000" d="M25.667 2.333H2.333c-.619 0-1.212.273-1.65.76C.246 3.579 0 4.238 0 4.926v18.148c0 .688.246 1.347.683 1.833.438.486 1.031.76 1.65.76h23.334c.618 0 1.212-.274 1.65-.76.437-.486.683-1.145.683-1.833V4.926c0-.688-.246-1.347-.683-1.833-.438-.487-1.032-.76-1.65-.76zM9.333 6.223c.929 0 1.819.409 2.475 1.138.657.73 1.025 1.719 1.025 2.75s-.368 2.02-1.025 2.75c-.656.73-1.546 1.139-2.475 1.139-.928 0-1.818-.41-2.475-1.139-.656-.73-1.025-1.719-1.025-2.75s.37-2.02 1.025-2.75c.657-.729 1.547-1.139 2.475-1.139zm7 15.555h-14v-1.296c0-2.593 4.667-4.019 7-4.019 2.334 0 7 1.426 7 4.018v1.297zm4.492-5.185h1.925l1.75 2.592-2.333 2.593c-1.517-1.296-2.649-3.098-3.174-5.185-.21-.83-.326-1.699-.326-2.593 0-.894.116-1.763.326-2.593.525-2.1 1.657-3.888 3.174-5.185L24.5 8.815l-1.75 2.592h-1.925c-.257.817-.408 1.686-.408 2.593s.151 1.776.408 2.593z"/>
</svg>
