<svg xmlns="http://www.w3.org/2000/svg" width="260" height="94" fill="none" viewBox="0 0 260 94">
    <rect width="258.651" height="94" x=".675" fill="#fff" rx="24"/>
    <path fill="#000" d="M130 47V19h12c.53 0 1.039.21 1.414.586.375.375.586.884.586 1.414v24c0 .53-.211 1.04-.586 1.414-.375.375-.884.586-1.414.586h-12zm12 2c1.061 0 2.078-.421 2.828-1.172.751-.75 1.172-1.767 1.172-2.828V21c0-1.06-.421-2.078-1.172-2.828-.75-.75-1.767-1.172-2.828-1.172h-24c-1.061 0-2.078.421-2.828 1.172-.751.75-1.172 1.767-1.172 2.828v24c0 1.06.421 2.078 1.172 2.828.75.75 1.767 1.172 2.828 1.172h24zM69.925 74h7.45v-2.028h-4.99v-9.608h-2.46V74zm12.976.17c2.648 0 4.296-1.812 4.296-4.5 0-2.704-1.648-4.51-4.296-4.51-2.647 0-4.295 1.806-4.295 4.51 0 2.688 1.648 4.5 4.295 4.5zm.012-1.874c-1.222 0-1.847-1.12-1.847-2.643 0-1.522.625-2.647 1.847-2.647 1.199 0 1.824 1.125 1.824 2.647 0 1.523-.625 2.642-1.824 2.642zm9.79 5.158c2.494 0 4.266-1.136 4.266-3.369v-8.812h-2.403v1.466h-.09c-.325-.71-1.035-1.58-2.495-1.58-1.915 0-3.534 1.489-3.534 4.46 0 2.904 1.574 4.256 3.54 4.256 1.392 0 2.17-.699 2.488-1.42h.102v1.596c0 1.199-.767 1.665-1.818 1.665-1.068 0-1.608-.466-1.807-.994l-2.238.3c.29 1.376 1.636 2.432 3.988 2.432zm.05-5.397c-1.187 0-1.835-.943-1.835-2.449 0-1.483.637-2.523 1.835-2.523 1.177 0 1.836.995 1.836 2.523 0 1.54-.67 2.449-1.835 2.449zm10.086 2.114c2.647 0 4.295-1.813 4.295-4.5 0-2.705-1.648-4.512-4.295-4.512-2.648 0-4.296 1.807-4.296 4.511 0 2.688 1.648 4.5 4.296 4.5zm.011-1.876c-1.221 0-1.846-1.119-1.846-2.642 0-1.522.625-2.647 1.846-2.647 1.199 0 1.824 1.125 1.824 2.647 0 1.523-.625 2.642-1.824 2.642zm12.777 1.847c1.409 0 2.142-.813 2.477-1.54h.103V74h2.386V62.364h-2.415v4.375h-.074c-.323-.71-1.022-1.58-2.483-1.58-1.914 0-3.534 1.489-3.534 4.489 0 2.92 1.551 4.494 3.54 4.494zm.767-1.926c-1.187 0-1.835-1.057-1.835-2.58 0-1.511.636-2.55 1.835-2.55 1.176 0 1.835.993 1.835 2.55s-.67 2.58-1.835 2.58zm10.132 1.955c2.648 0 4.296-1.813 4.296-4.5 0-2.705-1.648-4.512-4.296-4.512-2.647 0-4.295 1.807-4.295 4.511 0 2.688 1.648 4.5 4.295 4.5zm.012-1.876c-1.222 0-1.847-1.119-1.847-2.642 0-1.522.625-2.647 1.847-2.647 1.198 0 1.823 1.125 1.823 2.647 0 1.523-.625 2.642-1.823 2.642zm19.873-5.858c-.324-2.687-2.358-4.232-5.051-4.232-3.074 0-5.42 2.17-5.42 5.977 0 3.795 2.306 5.977 5.42 5.977 2.983 0 4.784-1.983 5.051-4.125l-2.488-.011c-.233 1.244-1.211 1.96-2.523 1.96-1.767 0-2.966-1.313-2.966-3.801 0-2.42 1.182-3.801 2.983-3.801 1.346 0 2.318.778 2.506 2.056h2.488zm4.139-4.073h-2.42V74h2.42V62.364zM152.489 74h2.421v-8.727h-2.421V74zm1.216-9.852c.722 0 1.313-.551 1.313-1.227 0-.671-.591-1.222-1.313-1.222-.716 0-1.307.551-1.307 1.221 0 .677.591 1.228 1.307 1.228zm7.121 10.023c2.159 0 3.614-1.052 3.955-2.671l-2.239-.148c-.244.665-.869 1.012-1.676 1.012-1.21 0-1.978-.802-1.978-2.103v-.005h5.944v-.665c0-2.966-1.796-4.432-4.103-4.432-2.568 0-4.233 1.824-4.233 4.517 0 2.767 1.642 4.495 4.33 4.495zm-1.938-5.415c.052-.995.807-1.79 1.881-1.79 1.051 0 1.779.75 1.784 1.79h-3.665zm9.944.198c.005-1.124.676-1.783 1.653-1.783.972 0 1.557.636 1.551 1.704V74h2.421v-5.557c0-2.034-1.194-3.284-3.012-3.284-1.295 0-2.233.636-2.625 1.653h-.102v-1.54h-2.307V74h2.421v-5.046zm12.174-3.681h-1.642v-2.091h-2.42v2.09h-1.193v1.819h1.193v4.545c-.011 1.71 1.153 2.557 2.909 2.483.625-.022 1.068-.147 1.312-.227l-.38-1.801c-.12.023-.375.08-.602.08-.483 0-.819-.182-.819-.853v-4.227h1.642v-1.818zm5.461 8.898c2.159 0 3.613-1.052 3.954-2.671l-2.238-.148c-.245.665-.87 1.012-1.677 1.012-1.21 0-1.977-.802-1.977-2.103v-.005h5.943v-.665c0-2.966-1.795-4.432-4.102-4.432-2.568 0-4.233 1.824-4.233 4.517 0 2.767 1.642 4.495 4.33 4.495zm-1.938-5.415c.051-.995.807-1.79 1.881-1.79 1.051 0 1.778.75 1.784 1.79h-3.665z"/>
</svg>
