<svg xmlns="http://www.w3.org/2000/svg" width="28" height="28" fill="none" viewBox="0 0 28 28">
    <path fill="#000" d="M18.05 12.359c3.61 0 6.499 2.746 6.499 6.18 0 1.208-.361 2.348-.997 3.295L28 26.091 25.993 28l-4.506-4.216c-.996.59-2.18.934-3.436.934-3.61 0-6.499-2.746-6.499-6.18 0-3.433 2.888-6.179 6.498-6.179zm0 2.746c-.957 0-1.875.362-2.552 1.006s-1.058 1.517-1.058 2.427c0 .911.38 1.784 1.058 2.428.677.644 1.595 1.006 2.553 1.006.957 0 1.875-.362 2.552-1.006s1.058-1.517 1.058-2.428c0-.91-.38-1.783-1.058-2.427-.677-.644-1.595-1.006-2.553-1.006zM5.777 16.48v2.746h2.888c.202 2.129 1.155 4.037 2.614 5.493h-8.39c-.766 0-1.5-.29-2.042-.804C.304 23.398 0 22.7 0 21.972V2.746C0 1.222 1.285 0 2.888 0h20.217c.766 0 1.5.29 2.042.804.542.515.846 1.214.846 1.942v11.027c-.846-1.275-2.018-2.326-3.407-3.054-1.39-.728-2.95-1.108-4.535-1.106-1.834 0-3.553.508-4.997 1.373H5.776v2.746h4.332c-.52.824-.953 1.758-1.198 2.747H5.776zm14.44-8.24V5.493H5.777v2.746h14.44z"/>
</svg>
